<svg width="4571" height="1243" xmlns="http://www.w3.org/2000/svg" xmlns:xlink="http://www.w3.org/1999/xlink" overflow="hidden"><defs><clipPath id="clip0"><rect x="599" y="768" width="4571" height="1243"/></clipPath></defs><g clip-path="url(#clip0)" transform="translate(-599 -768)"><rect x="599" y="768" width="1477" height="1243" fill="#FFF2CC" fill-opacity="0.501961"/><text font-family="Calibri,Calibri_MSFontService,sans-serif" font-weight="700" font-size="110" transform="matrix(1 0 0 1 671.244 1668)">OpenAI<tspan font-size="110" x="368.385" y="0">Gym Env</tspan></text><rect x="645.5" y="1720.5" width="520" height="195" stroke="#FFFFFF" stroke-width="4.58333" stroke-miterlimit="8" fill="#FFD966"/><text font-family="Calibri,Calibri_MSFontService,sans-serif" font-weight="400" font-size="73" transform="matrix(1 0 0 1 808.176 1843)">Box2D</text><rect x="1209.5" y="1720.5" width="520" height="195" stroke="#FFFFFF" stroke-width="4.58333" stroke-miterlimit="8" fill="#FFD966"/><text font-family="Calibri,Calibri_MSFontService,sans-serif" font-weight="400" font-size="73" transform="matrix(1 0 0 1 1396.6 1843)">Atari</text><rect x="1773.5" y="1720.5" width="260" height="195" stroke="#FFFFFF" stroke-width="4.58333" stroke-miterlimit="8" fill="#FFD966"/><text font-family="Calibri,Calibri_MSFontService,sans-serif" font-weight="400" font-size="64" transform="matrix(1 0 0 1 1880.88 1839)">…</text><rect x="599" y="768" width="1482" height="738" fill="#C5E0B4" fill-opacity="0.501961"/><text font-family="Calibri,Calibri_MSFontService,sans-serif" font-weight="700" font-size="110" transform="matrix(1 0 0 1 671.244 921)">(a) <tspan font-size="110" x="147.812" y="0">ShinEnv</tspan></text><rect x="646" y="1238" width="650" height="195" fill="#A9D18E"/><text font-family="Calibri,Calibri_MSFontService,sans-serif" font-weight="400" font-size="73" transform="matrix(1 0 0 1 756.056 1360)">ShinPendulum</text><rect x="646" y="981" width="650" height="195" fill="#A9D18E"/><text font-family="Calibri,Calibri_MSFontService,sans-serif" font-weight="400" font-size="73" transform="matrix(1 0 0 1 711.368 1104)">ShinMountainCar</text><rect x="1383" y="986" width="650" height="195" fill="#A9D18E"/><text font-family="Calibri,Calibri_MSFontService,sans-serif" font-weight="400" font-size="73" transform="matrix(1 0 0 1 1562.82 1109)">ShinMaze</text><rect x="1383" y="1238" width="650" height="195" fill="#A9D18E"/><text font-family="Calibri,Calibri_MSFontService,sans-serif" font-weight="400" font-size="73" transform="matrix(1 0 0 1 1517.28 1360)">ShinCartPole</text><rect x="2169" y="768" width="3001" height="1243" fill="#DAE3F3" fill-opacity="0.501961"/><text font-family="Calibri,Calibri_MSFontService,sans-serif" font-weight="700" font-size="110" transform="matrix(1 0 0 1 2260.25 921)">(b) Solver</text><rect x="2243.5" y="974.5" width="650" height="195" stroke="#FFFFFF" stroke-width="4.58333" stroke-miterlimit="8" fill="#5B9BD5"/><text font-family="Calibri,Calibri_MSFontService,sans-serif" font-weight="400" font-size="73" transform="matrix(1 0 0 1 2346.25 1096)">Value Iteration</text><rect x="2980.5" y="974.5" width="650" height="195" stroke="#FFFFFF" stroke-width="4.58333" stroke-miterlimit="8" fill="#5B9BD5"/><text font-family="Calibri,Calibri_MSFontService,sans-serif" font-weight="400" font-size="73" transform="matrix(1 0 0 1 3079.87 1096)">Policy Iteration</text><rect x="2243.5" y="1720.5" width="650" height="195" stroke="#FFFFFF" stroke-width="4.58333" stroke-miterlimit="8" fill="#5B9BD5"/><text font-family="Calibri,Calibri_MSFontService,sans-serif" font-weight="400" font-size="73" transform="matrix(1 0 0 1 2417.58 1843)">Tabular VI</text><rect x="2980.5" y="1720.5" width="650" height="195" stroke="#FFFFFF" stroke-width="4.58333" stroke-miterlimit="8" fill="#5B9BD5"/><text font-family="Calibri,Calibri_MSFontService,sans-serif" font-weight="400" font-size="73" transform="matrix(1 0 0 1 3148.62 1843)">Tabular RL</text><rect x="3717.5" y="1720.5" width="649" height="195" stroke="#FFFFFF" stroke-width="4.58333" stroke-miterlimit="8" fill="#5B9BD5"/><text font-family="Calibri,Calibri_MSFontService,sans-serif" font-weight="400" font-size="73" transform="matrix(1 0 0 1 3924.74 1843)">Deep <tspan font-size="73" x="173.594" y="0">VI </tspan></text><rect x="4454.5" y="1720.5" width="649" height="195" stroke="#FFFFFF" stroke-width="4.58333" stroke-miterlimit="8" fill="#5B9BD5"/><text font-family="Calibri,Calibri_MSFontService,sans-serif" font-weight="400" font-size="73" transform="matrix(1 0 0 1 4656.17 1843)">Deep RL</text><rect x="2544" y="1289" width="48.9998" height="38.9999"/><path d="M2568 1169 2568 1289.44" stroke="#000000" stroke-width="2.29167" stroke-miterlimit="8" fill="none" fill-rule="evenodd"/><path d="M0 0 0.000360892 391.865" stroke="#000000" stroke-width="2.29167" stroke-miterlimit="8" fill="none" fill-rule="evenodd" transform="matrix(-1 0 0 1 2568 1328)"/><path d="M2593 1309 3304.74 1309 3304.74 1720.61" stroke="#000000" stroke-width="2.29167" stroke-miterlimit="8" fill="none" fill-rule="evenodd"/><path d="M2593 1309 4041.61 1309 4041.61 1720.61" stroke="#000000" stroke-width="2.29167" stroke-miterlimit="8" fill="none" fill-rule="evenodd"/><path d="M2593 1309 4778.48 1309 4778.48 1720.61" stroke="#000000" stroke-width="2.29167" stroke-miterlimit="8" fill="none" fill-rule="evenodd"/><rect x="2243.5" y="1464.5" width="650" height="178" stroke="#000000" stroke-width="3.4375" stroke-linejoin="round" stroke-miterlimit="10" fill="#FFFFFF"/><text font-family="Calibri,Calibri_MSFontService,sans-serif" font-weight="400" font-size="60" transform="matrix(1 0 0 1 2276.45 1536)">approx<tspan font-size="60" x="169.583" y="0">: “tabular”</tspan><tspan font-size="60" x="0" y="71">explore: “oracle”</tspan></text><rect x="2977.5" y="1464.5" width="649" height="178" stroke="#000000" stroke-width="3.4375" stroke-linejoin="round" stroke-miterlimit="10" fill="#FFFFFF"/><text font-family="Calibri,Calibri_MSFontService,sans-serif" font-weight="400" font-size="60" transform="matrix(1 0 0 1 3009.6 1536)">approx<tspan font-size="60" x="169.583" y="0">: “tabular”</tspan><tspan font-size="60" x="0" y="71">explore: “</tspan><tspan font-size="60" x="237.76" y="71">eps_greedy</tspan><tspan font-size="60" x="519.062" y="71">”</tspan></text><rect x="3717.5" y="1464.5" width="649" height="178" stroke="#000000" stroke-width="3.4375" stroke-linejoin="round" stroke-miterlimit="10" fill="#FFFFFF"/><text font-family="Calibri,Calibri_MSFontService,sans-serif" font-weight="400" font-size="60" transform="matrix(1 0 0 1 3749.81 1536)">approx<tspan font-size="60" x="169.583" y="0">: “</tspan><tspan font-size="60" x="224.583" y="0">nn</tspan><tspan font-size="60" x="287.604" y="0">”</tspan><tspan font-size="60" x="0" y="71">explore: “oracle”</tspan></text><rect x="4454.5" y="1464.5" width="649" height="178" stroke="#000000" stroke-width="3.4375" stroke-linejoin="round" stroke-miterlimit="10" fill="#FFFFFF"/><text font-family="Calibri,Calibri_MSFontService,sans-serif" font-weight="400" font-size="60" transform="matrix(1 0 0 1 4486.68 1536)">approx<tspan font-size="60" x="169.583" y="0">: “</tspan><tspan font-size="60" x="224.583" y="0">nn</tspan><tspan font-size="60" x="287.604" y="0">”</tspan><tspan font-size="60" x="0" y="71">explore: “</tspan><tspan font-size="60" x="237.76" y="71">eps_greedy</tspan><tspan font-size="60" x="519.063" y="71">”</tspan></text><rect x="3893.5" y="802.5" width="1123" height="372" stroke="#000000" stroke-width="3.4375" stroke-linejoin="round" stroke-miterlimit="10" fill="#FFFFFF"/><text font-family="Calibri,Calibri_MSFontService,sans-serif" font-weight="700" font-size="60" transform="matrix(1 0 0 1 3925.93 874)">Solver configurations<tspan font-family="Arial,Arial_MSFontService,sans-serif" font-weight="400" font-size="55" x="0" y="67">•</tspan><tspan font-weight="400" font-size="55" x="103.125" y="67">Function approximation (tabular/</tspan><tspan font-weight="400" font-size="55" x="848.49" y="67">nn</tspan><tspan font-weight="400" font-size="55" x="905.781" y="67">)</tspan><tspan font-family="Arial,Arial_MSFontService,sans-serif" font-weight="400" font-size="55" x="0" y="133">•</tspan><tspan font-weight="400" font-size="55" x="103.125" y="133">Exploration strategies (</tspan><tspan font-weight="400" font-size="55" x="619.323" y="133">eps_greedy</tspan><tspan font-weight="400" font-size="55" x="877.709" y="133">/oracle)</tspan><tspan font-family="Arial,Arial_MSFontService,sans-serif" font-weight="400" font-size="55" x="0" y="199">•</tspan><tspan font-weight="400" font-size="55" x="103.125" y="199">Regularizations (KL, entropy)</tspan><tspan font-family="Arial,Arial_MSFontService,sans-serif" font-weight="400" font-size="55" x="0" y="265">•</tspan><tspan font-weight="400" font-size="55" x="103.125" y="265">…</tspan></text></g></svg>